<svg xmlns="http://www.w3.org/2000/svg" viewBox="0 0 695 680">
<g transform="translate(0,680) scale(0.1,-0.1)">
<path fill="#000000" fill-rule="evenodd" d="M3200 6745 c0 -2 15 -12 33 -21 53 -28 141 -100 159 -131 l17 -30
-57 20 c-83 28 -210 33 -313 12 -182 -36 -331 -115 -454 -239 l-80 -80 35 -7
c19 -4 67 -11 106 -14 l70 -7 -65 -62 c-78 -74 -112 -95 -207 -129 -65 -23
-294 -66 -435 -82 -31 -3 -65 -12 -75 -19 -17 -13 -17 -15 -1 -39 14 -22 55
-46 147 -85 25 -10 25 -11 2 -11 -62 -2 -235 -95 -316 -171 -56 -52 -110 -126
-97 -134 4 -3 33 3 64 14 47 17 137 41 137 36 0 0 -39 -41 -86 -91 -47 -49
-126 -151 -176 -225 -112 -166 -152 -219 -289 -386 -234 -285 -315 -427 -405
-712 -93 -296 -117 -352 -221 -529 -64 -110 -89 -177 -102 -281 -14 -101 6
-253 25 -196 19 58 67 146 106 199 51 69 139 167 144 162 2 -2 -14 -43 -35
-93 -84 -195 -131 -356 -190 -655 -46 -231 -92 -352 -187 -485 -71 -100 -196
-199 -277 -219 -33 -9 -34 -15 -4 -42 69 -64 202 -120 305 -129 l67 -6 -42
-86 c-52 -106 -73 -195 -73 -309 0 -97 26 -189 72 -256 l25 -37 6 67 c11 117
60 231 152 358 36 50 40 53 43 31 6 -48 -29 -264 -69 -426 -35 -142 -41 -185
-46 -310 -5 -126 -3 -156 15 -227 44 -173 148 -326 287 -422 48 -34 105 -64
111 -59 2 2 -6 28 -17 57 -43 115 -69 312 -54 426 l7 58 48 -102 c156 -325
404 -517 735 -568 191 -29 409 3 571 85 81 41 145 85 231 159 l49 42 30 -20
c249 -168 682 -289 1035 -289 l109 0 -77 94 c-90 109 -136 181 -162 257 -18
51 -51 179 -46 179 1 0 25 -30 52 -67 68 -91 221 -238 312 -298 140 -92 308
-150 413 -143 l47 3 -65 55 c-57 48 -164 173 -164 192 0 3 33 -13 73 -37 97
-59 231 -109 358 -135 86 -18 128 -21 247 -18 78 2 147 9 152 14 7 7 2 29 -15
68 -14 31 -32 95 -40 143 -15 85 -21 303 -8 303 3 0 54 -46 112 -103 268 -261
494 -373 776 -384 269 -10 479 65 657 235 160 153 254 339 315 622 23 107 26
510 5 630 -17 96 -89 375 -103 402 -11 21 -11 21 19 0 35 -25 74 -69 121 -135
19 -25 38 -44 42 -41 18 11 10 257 -10 336 -39 151 -135 305 -262 421 l-70 64
52 6 c29 4 76 18 105 32 49 24 134 103 134 125 0 5 -17 10 -37 10 -165 1 -369
143 -523 366 -85 123 -170 308 -170 370 0 25 -2 26 -37 20 -21 -3 -94 -8 -163
-12 l-125 -6 -59 49 -58 48 193 12 c106 7 198 14 205 17 12 5 9 41 -6 61 -44
57 -62 309 -36 502 9 67 16 158 16 202 0 158 -60 376 -115 419 -12 10 -26 28
-30 41 l-7 24 -137 -6 c-290 -13 -553 -86 -662 -184 -66 -59 -89 -174 -64
-308 15 -83 58 -213 90 -276 9 -17 14 -33 12 -35 -8 -9 -198 221 -264 318 -58
87 -69 99 -106 109 -75 20 -170 -15 -212 -79 -13 -20 -47 -104 -76 -187 -93
-270 -203 -472 -312 -571 -120 -109 -272 -185 -451 -227 -123 -28 -426 -30
-561 -4 -213 42 -325 96 -440 211 -127 129 -179 241 -255 558 -57 240 -68 265
-153 349 l-72 71 -69 -22 c-38 -12 -157 -58 -265 -101 -108 -44 -203 -82 -211
-85 -13 -4 -14 6 -10 68 9 124 28 142 287 272 253 126 382 167 673 215 272 45
406 55 695 56 476 0 655 -37 1139 -240 102 -43 183 -54 265 -36 29 6 125 42
214 80 204 87 287 116 412 147 109 27 316 54 408 54 l58 0 -7 48 c-7 52 -57
189 -99 273 -75 147 -196 294 -318 385 l-58 43 42 11 c23 6 59 8 80 5 23 -4
39 -3 39 3 0 12 -101 106 -177 165 -176 135 -525 306 -699 342 l-31 6 23 -68
c63 -187 51 -419 -31 -595 -27 -59 -42 -79 -25 -32 18 46 12 229 -11 328 -12
50 -25 95 -29 99 -4 5 -13 -13 -19 -40 -13 -52 -61 -166 -68 -160 -2 2 3 46
12 98 27 168 14 277 -47 392 -27 51 -136 173 -145 163 -2 -2 3 -32 12 -67 18
-76 20 -269 3 -229 -84 195 -153 284 -266 343 -57 30 -169 66 -206 67 -6 0 15
-23 46 -50 96 -86 165 -188 183 -271 l7 -34 -42 52 c-46 56 -182 170 -270 225
-116 74 -226 108 -347 108 -40 0 -73 -2 -73 -5z m2388 -2273 c20 -26 14 -42
-23 -58 -25 -10 -45 -12 -68 -6 -28 7 -32 12 -32 42 0 28 5 35 25 41 35 9 83
0 98 -19z m-265 -262 c51 -60 93 -80 167 -80 36 1 82 7 102 14 48 17 39 2 -15
-26 -33 -18 -58 -23 -117 -22 -84 0 -142 23 -179 70 -24 31 -51 114 -51 158 0
29 2 28 32 -24 17 -30 44 -71 61 -90z m-327 -184 c71 -36 94 -55 158 -127 40
-46 127 -131 192 -189 65 -58 165 -157 222 -220 58 -63 149 -163 202 -221 l98
-106 -51 14 c-69 19 -243 18 -442 -2 -201 -20 -263 -31 -342 -60 -160 -60
-220 -148 -230 -336 -5 -90 -4 -99 17 -129 53 -74 222 -111 345 -76 45 14 69
29 113 72 l55 55 -6 -46 c-9 -81 -58 -129 -152 -146 -85 -16 -238 8 -283 44
-25 20 -21 0 18 -79 67 -138 182 -234 390 -324 143 -62 144 -64 148 -157 2
-43 -3 -118 -11 -166 -27 -153 -74 -201 -341 -348 -83 -45 -207 -121 -276
-168 -69 -47 -174 -118 -235 -160 -192 -130 -318 -179 -485 -188 -332 -19
-662 231 -664 502 0 39 3 82 7 98 7 25 11 27 61 27 29 0 68 5 87 12 39 13 129
69 129 80 0 5 -19 8 -42 8 -48 0 -111 26 -163 66 -43 32 -44 41 -4 49 45 10
171 98 225 158 97 107 140 199 175 367 56 272 143 452 307 630 78 85 179 172
168 145 -25 -65 -75 -329 -64 -340 7 -8 141 84 166 113 12 15 67 86 122 158
216 285 339 351 696 370 85 5 124 11 124 19 0 21 -61 104 -101 139 -171 146
-451 185 -655 92 l-54 -25 16 24 c48 73 217 130 366 123 48 -2 88 -1 88 2 0 3
-13 13 -28 22 -16 10 -60 46 -99 82 -72 67 -104 120 -119 201 l-7 40 37 -29
c21 -16 76 -47 122 -70z m-2986 -547 c-28 -62 -26 -157 3 -230 13 -30 53 -107
90 -170 90 -156 125 -233 143 -320 21 -99 14 -241 -16 -328 -34 -95 -113 -206
-200 -278 -41 -34 -75 -61 -76 -60 -2 1 2 38 8 82 21 170 -10 369 -92 580
l-39 100 65 -70 c72 -77 142 -208 164 -304 l13 -54 18 34 c56 111 43 239 -50
468 -101 250 -125 366 -98 462 15 49 74 146 83 136 3 -2 -5 -24 -16 -48z
m3893 -833 c24 0 45 8 60 22 l24 23 12 -89 c19 -152 11 -276 -30 -477 l-20
-100 26 -90 c33 -109 44 -280 25 -378 -31 -159 -156 -364 -293 -479 l-42 -35
30 86 c26 76 29 99 30 206 0 109 -2 125 -26 175 -15 30 -52 82 -83 115 -49 52
-56 64 -52 90 6 38 35 273 42 345 5 55 5 55 80 114 77 61 144 133 182 197 29
48 62 144 62 180 0 26 -2 27 -35 22 -29 -5 -39 -1 -65 25 -25 25 -30 39 -30
76 l0 46 34 -37 c27 -30 41 -37 69 -37z m-3449 -304 c201 -312 295 -519 347
-765 17 -79 22 -137 22 -257 1 -233 -36 -406 -123 -585 -60 -123 -89 -164 -50
-70 16 39 39 117 51 175 20 91 23 133 23 325 0 205 -1 228 -27 336 -34 146
-66 240 -152 449 -79 195 -139 357 -160 440 -8 33 -18 67 -21 77 -6 23 -3 18
90 -125z m3139 -1049 c-19 -136 -64 -212 -167 -281 -220 -147 -552 -173 -728
-57 -21 14 -38 29 -38 33 0 10 181 153 262 207 l56 38 139 -2 c158 -3 245 12
387 64 50 18 92 34 93 34 1 1 -1 -16 -4 -36z M3000 4965 c-231 -28 -334 -69 -423 -165 -79 -85 -92 -129 -91 -305
1 -103 7 -164 22 -230 45 -200 129 -368 221 -447 141 -120 385 -178 696 -165
310 14 499 112 625 326 141 240 201 568 131 726 -21 47 -81 107 -144 143 -85
49 -261 98 -440 122 -106 14 -467 11 -597 -5z m611 -465 c12 -7 19 -21 19 -40
0 -47 -61 -67 -108 -34 -62 43 19 111 89 74z m307 -182 l32 -58 -72 -50 c-125
-88 -218 -120 -347 -120 -113 0 -263 56 -348 128 l-31 27 23 39 23 39 20 -39
c28 -55 77 -98 147 -131 54 -25 71 -28 165 -28 89 0 113 4 158 24 89 40 142
120 157 235 l7 49 17 -29 c9 -16 31 -55 49 -86z"/>
<path fill="#ffffff" fill-rule="evenodd" d="M3166 6784 c-33 -32 -16 -79 39 -108 30 -15 29 -15 -43 -16 -240 -1
-522 -134 -663 -313 -62 -78 -49 -120 41 -132 44 -6 49 -9 38 -22 -58 -70
-251 -127 -552 -163 -49 -6 -102 -18 -117 -26 -51 -26 -51 -96 1 -144 l29 -27
-90 -54 c-95 -56 -187 -144 -224 -211 -26 -50 -13 -89 33 -104 29 -9 31 -12
18 -24 -9 -7 -57 -74 -108 -149 -111 -166 -151 -219 -289 -387 -235 -286 -323
-441 -415 -732 -82 -259 -116 -344 -196 -483 -39 -68 -82 -152 -94 -185 -43
-116 -53 -284 -23 -382 12 -37 47 -51 85 -33 29 13 29 17 5 -77 -11 -43 -33
-147 -50 -233 -46 -230 -87 -338 -176 -464 -71 -100 -168 -179 -258 -211 -23
-8 -45 -20 -49 -27 -14 -22 -8 -64 13 -91 41 -52 201 -130 311 -151 l27 -5
-25 -56 c-38 -87 -54 -169 -54 -287 0 -116 18 -192 66 -274 32 -56 51 -73 79
-73 37 0 52 23 58 97 7 71 32 158 61 209 l16 29 -6 -40 c-4 -22 -25 -112 -46
-200 -36 -144 -40 -177 -45 -325 -5 -146 -3 -176 15 -247 50 -199 169 -363
335 -466 71 -43 97 -52 132 -43 38 10 42 47 12 135 -27 79 -47 167 -47 203 0
15 18 -4 56 -60 192 -281 516 -435 879 -419 235 11 441 91 609 237 l45 38 88
-49 c259 -145 641 -239 973 -239 104 0 132 3 144 16 30 29 18 60 -57 151 -40
48 -84 104 -97 123 -22 31 -18 30 33 -17 104 -94 249 -179 392 -228 28 -10 94
-20 151 -22 85 -5 103 -3 117 11 25 25 21 63 -10 92 l-26 24 43 -15 c99 -35
236 -55 372 -55 249 1 281 23 223 154 -26 59 -55 200 -55 269 l0 39 71 -66
c168 -159 354 -270 550 -327 115 -33 341 -38 478 -9 180 37 316 107 443 228
161 154 263 355 324 637 22 104 31 455 15 592 -11 95 -36 228 -48 260 -5 11 0
10 15 -5 27 -27 66 -28 92 -2 18 18 20 33 20 168 0 178 -17 256 -83 389 -47
93 -94 162 -155 225 -20 21 -34 39 -31 41 2 1 25 12 51 24 86 40 158 121 158
175 0 40 -16 51 -82 59 -81 10 -134 28 -204 70 -114 69 -249 216 -336 366 -46
79 -101 208 -96 223 2 7 29 19 58 27 256 64 376 265 450 753 27 177 42 232 78
277 49 64 52 74 52 215 0 148 -11 183 -68 212 -29 15 -322 76 -462 97 -41 6
-151 14 -245 17 l-169 7 -7 40 c-8 47 -56 170 -100 258 -54 107 -119 199 -197
280 -45 46 -69 77 -59 77 25 0 47 29 47 61 0 76 -256 273 -535 412 -187 92
-384 157 -438 143 -39 -9 -42 -41 -13 -127 23 -69 47 -212 45 -269 0 -14 -9 6
-19 45 -18 66 -38 95 -67 95 -8 0 -13 12 -13 33 -1 83 -52 224 -112 303 -38
51 -117 114 -143 114 -32 0 -55 -25 -55 -62 l0 -31 -55 52 c-65 62 -188 124
-279 141 -85 16 -115 9 -123 -31 -3 -16 -8 -28 -12 -26 -58 31 -159 71 -206
83 -85 20 -239 19 -259 -2z m239 -49 c74 -17 143 -47 215 -93 88 -55 224 -169
270 -225 l42 -52 -7 34 c-18 83 -87 185 -183 271 -31 27 -52 50 -46 50 37 -1
149 -37 206 -67 113 -59 182 -148 266 -343 17 -40 15 153 -3 229 -9 35 -14 65
-12 67 9 10 118 -112 145 -163 61 -115 74 -224 47 -392 -9 -52 -14 -96 -12
-98 7 -6 55 108 68 160 6 27 15 45 19 40 4 -4 17 -49 29 -99 23 -99 29 -282
11 -328 -17 -47 -2 -27 25 32 82 176 94 408 31 595 l-23 68 31 -6 c174 -36
523 -207 699 -342 76 -59 177 -153 177 -165 0 -6 -16 -7 -39 -3 -21 3 -57 1
-80 -5 l-42 -11 58 -43 c122 -91 243 -238 318 -385 42 -84 92 -221 99 -273 l7
-48 132 0 c159 0 329 -19 537 -60 280 -56 270 -47 270 -220 l0 -117 -33 -44
c-19 -24 -39 -53 -44 -64 -15 -28 -39 -141 -58 -273 -40 -278 -109 -470 -205
-576 -59 -63 -122 -98 -230 -124 -64 -16 -75 -22 -78 -41 -8 -53 79 -246 168
-375 154 -223 358 -365 523 -366 20 0 37 -5 37 -10 0 -22 -85 -101 -134 -125
-29 -14 -76 -28 -105 -32 l-52 -6 70 -64 c127 -116 223 -270 262 -421 20 -79
28 -325 10 -336 -4 -3 -23 16 -42 41 -47 66 -86 110 -121 135 -30 21 -30 21
-19 0 14 -27 86 -306 103 -402 21 -120 18 -523 -5 -630 -61 -283 -155 -469
-315 -622 -125 -120 -246 -182 -423 -218 -134 -28 -323 -24 -438 9 -206 60
-374 165 -572 358 -58 57 -109 103 -112 103 -13 0 -7 -218 8 -303 8 -48 26
-112 40 -143 17 -39 22 -61 15 -68 -5 -5 -74 -12 -152 -14 -119 -3 -161 0
-247 18 -127 26 -261 76 -358 135 -40 24 -73 40 -73 37 0 -19 107 -144 164
-192 l65 -55 -47 -3 c-105 -7 -273 51 -413 143 -91 60 -244 207 -312 298 -27
37 -51 67 -52 67 -5 0 28 -128 46 -179 26 -76 72 -148 162 -257 l77 -94 -109
0 c-353 0 -786 121 -1035 289 l-30 20 -49 -42 c-139 -120 -261 -186 -406 -223
-326 -83 -664 0 -898 220 -96 90 -167 190 -233 327 l-48 102 -7 -58 c-15 -114
11 -311 54 -426 11 -29 19 -55 17 -57 -6 -5 -63 25 -111 59 -139 96 -243 249
-287 422 -18 71 -20 101 -15 227 5 125 11 168 46 310 40 162 75 378 69 426 -3
22 -7 19 -43 -31 -92 -127 -141 -241 -152 -358 l-6 -67 -25 37 c-46 67 -72
159 -72 256 0 114 21 203 73 309 l42 86 -67 6 c-103 9 -236 65 -305 129 -30
27 -29 33 4 42 81 20 206 119 277 219 95 133 141 254 187 485 59 299 106 460
190 655 21 50 37 91 35 93 -5 5 -93 -93 -144 -162 -39 -53 -87 -141 -106 -199
-19 -57 -39 95 -25 196 13 104 38 171 102 281 104 177 128 233 221 529 90 285
171 427 405 712 137 167 177 220 289 386 50 74 129 176 176 225 47 50 86 91
86 91 0 5 -90 -19 -137 -36 -31 -11 -60 -17 -64 -14 -13 8 41 82 97 134 81 76
254 169 316 171 23 0 23 1 -2 11 -92 39 -133 63 -147 85 -16 24 -16 26 1 39
10 7 44 16 75 19 141 16 370 59 435 82 95 34 129 55 207 129 l65 62 -70 7
c-39 3 -87 10 -106 14 l-35 7 80 80 c123 124 272 203 454 239 103 21 230 16
313 -12 l57 -20 -17 30 c-18 31 -106 103 -159 131 -18 9 -33 19 -33 21 0 11
149 4 205 -10z M5795 4969 c4 -13 18 -31 30 -41 55 -43 115 -261 115 -419 0 -44 -7
-135 -16 -202 -25 -192 -13 -391 31 -492 7 -16 16 -38 19 -48 8 -24 58 -15
145 24 81 37 131 89 174 182 69 145 101 318 101 552 1 194 -11 264 -55 324
-56 79 -208 127 -433 138 l-118 6 7 -24z m295 -56 c96 -19 173 -56 205 -97 37
-48 50 -123 49 -291 -1 -269 -59 -503 -154 -617 -17 -21 -59 -51 -97 -70 -64
-31 -66 -31 -80 -13 -47 65 -65 269 -39 462 31 235 12 451 -53 590 l-30 64 62
-7 c34 -3 96 -13 137 -21z M3516 4494 c-48 -47 30 -108 95 -74 12 7 19 21 19 40 0 19 -7 33 -19
40 -29 15 -77 12 -95 -6z M5490 4491 c-20 -6 -25 -13 -25 -41 0 -30 4 -35 32 -42 38 -10 103
12 103 35 0 37 -57 62 -110 48z M3845 4384 c-15 -115 -68 -195 -157 -235 -45 -20 -69 -24 -158 -24
-94 0 -111 3 -165 28 -70 33 -119 76 -147 131 l-20 39 -23 -39 -23 -39 31 -27
c85 -72 235 -128 348 -128 129 0 222 32 347 120 l72 50 -32 58 c-18 31 -40 70
-49 86 l-17 29 -7 -49z M5230 4324 c0 -44 27 -127 51 -158 37 -47 95 -70 179 -70 59 -1 84 4
117 22 54 28 63 43 15 26 -20 -7 -66 -13 -102 -14 -97 0 -157 44 -228 170 -30
52 -32 53 -32 24z M4844 4085 c15 -81 47 -134 119 -201 39 -36 83 -72 99 -82 15 -9 28
-19 28 -22 0 -3 -40 -4 -88 -2 -149 7 -318 -50 -366 -123 l-16 -24 54 25 c204
93 484 54 655 -92 40 -35 101 -118 101 -139 0 -8 -39 -14 -124 -19 -357 -19
-480 -85 -696 -370 -55 -72 -110 -143 -122 -158 -25 -29 -159 -121 -166 -113
-11 11 39 275 64 340 11 27 -90 -60 -168 -145 -164 -178 -251 -358 -307 -630
-35 -168 -78 -260 -175 -367 -54 -60 -180 -148 -225 -158 -40 -8 -39 -17 4
-49 52 -40 115 -66 163 -66 23 0 42 -3 42 -8 0 -11 -90 -67 -129 -80 -19 -7
-58 -12 -87 -12 -50 0 -54 -2 -61 -27 -4 -16 -7 -59 -7 -98 2 -215 200 -414
484 -486 68 -17 102 -20 180 -16 167 9 293 58 485 188 61 42 166 113 235 160
69 47 193 123 276 168 267 147 314 195 341 348 8 48 13 123 11 166 -4 93 -5
95 -148 157 -208 90 -323 186 -390 324 -39 79 -43 99 -18 79 45 -36 198 -60
283 -44 94 17 143 65 152 146 l6 46 -55 -55 c-44 -43 -68 -58 -113 -72 -123
-35 -292 2 -345 76 -21 30 -22 39 -17 129 10 188 70 276 230 336 79 29 141 40
342 60 199 20 373 21 442 2 l51 -14 -98 106 c-53 58 -144 158 -202 221 -57 63
-157 162 -222 220 -65 58 -152 143 -192 189 -64 72 -87 91 -158 127 -46 23
-101 54 -122 70 l-37 29 7 -40z M1991 3488 c-89 -120 -78 -243 50 -559 93 -229 106 -357 50 -468
l-18 -34 -13 54 c-22 96 -92 227 -164 304 l-65 70 39 -100 c82 -211 113 -410
92 -580 -6 -44 -10 -81 -8 -82 1 -1 35 26 76 60 87 72 166 183 200 278 30 87
37 229 16 328 -18 87 -53 164 -143 320 -37 63 -77 140 -90 170 -29 73 -31 168
-3 230 11 24 19 46 16 48 -2 2 -18 -15 -35 -39z M5800 2674 c0 -37 5 -51 30 -76 26 -26 36 -30 65 -25 33 5 35 4 35
-22 0 -36 -33 -132 -62 -180 -38 -64 -105 -136 -182 -197 -75 -59 -75 -59 -80
-114 -7 -72 -36 -307 -42 -345 -4 -26 3 -38 52 -90 31 -33 68 -85 83 -115 24
-50 26 -66 26 -175 -1 -107 -4 -130 -30 -206 l-30 -86 42 35 c137 115 262 320
293 479 19 98 8 269 -25 378 l-26 90 20 100 c41 201 49 325 30 477 l-12 89
-24 -23 c-38 -36 -88 -30 -129 15 l-34 37 0 -46z M2364 2467 c3 -10 13 -44 21 -77 21 -83 81 -245 160 -440 86 -209
118 -303 152 -449 26 -108 27 -131 27 -336 0 -192 -3 -234 -23 -325 -12 -58
-35 -136 -51 -175 -39 -94 -10 -53 50 70 87 179 124 352 123 585 0 333 -97
600 -369 1022 -93 143 -96 148 -90 125z M5504 1295 c-142 -52 -229 -67 -387 -64 l-139 2 -56 -38 c-81 -54
-262 -197 -262 -207 0 -4 17 -19 38 -33 176 -116 508 -90 728 57 81 54 127
114 149 193 12 45 27 126 22 124 -1 0 -43 -16 -93 -34z"/>
<path fill="#fe0000" fill-rule="evenodd" d="M2980 5134 c-399 -35 -733 -98 -905 -169 -47 -19 -145 -65 -218 -101
-259 -130 -278 -148 -287 -272 -4 -62 -3 -72 10 -68 8 3 103 41 211 85 108 43
227 89 265 101 l69 22 72 -71 c85 -84 96 -109 153 -349 76 -317 128 -429 255
-558 115 -115 227 -169 440 -211 135 -26 438 -24 561 4 179 42 331 118 451
227 109 99 219 301 312 571 29 83 63 167 76 187 42 64 137 99 212 79 37 -10
48 -22 106 -109 66 -97 256 -327 264 -318 2 2 -3 18 -12 35 -32 63 -75 193
-90 276 -25 134 -2 249 64 308 74 67 241 129 441 165 141 24 552 24 670 -1
177 -38 255 -98 282 -215 16 -74 16 -372 -1 -472 -31 -184 -86 -334 -150 -411
-39 -47 -129 -94 -219 -114 -41 -9 -157 -22 -259 -28 l-185 -12 58 -47 59 -48
83 0 c149 0 352 39 449 86 152 74 255 293 308 656 19 132 43 245 58 273 5 11
25 40 44 64 l33 44 0 117 c0 173 10 164 -270 220 -225 44 -380 60 -595 60
-214 0 -392 -18 -540 -54 -125 -31 -208 -60 -412 -147 -89 -38 -185 -74 -214
-80 -82 -18 -163 -7 -265 36 -335 140 -461 179 -699 217 -100 16 -188 21 -385
23 -140 1 -275 1 -300 -1z m617 -164 c326 -44 527 -135 584 -265 56 -126 34
-346 -56 -571 -133 -331 -327 -464 -700 -481 -311 -13 -555 45 -696 165 -92
79 -176 247 -221 447 -15 66 -21 127 -22 230 -1 176 12 220 91 305 89 96 192
137 423 165 130 16 491 19 597 5z"/>
</g>
</svg>
